<?xml version="1.0" standalone="no"?>
<!DOCTYPE svg PUBLIC "-//W3C//DTD SVG 20010904//EN"
 "http://www.w3.org/TR/2001/REC-SVG-20010904/DTD/svg10.dtd">
<svg version="1.0" xmlns="http://www.w3.org/2000/svg"
 width="713.000000pt" height="713.000000pt" viewBox="0 0 713.000000 713.000000"
 preserveAspectRatio="xMidYMid meet">
<metadata>
Created by potrace 1.11, written by Peter Selinger 2001-2013
</metadata>
<g transform="translate(0.000000,713.000000) scale(0.100000,-0.100000)"
fill="#000000" stroke="none">
<path d="M5919 4546 c-2 -2 -24 -7 -49 -10 -127 -17 -317 -93 -442 -177 -86
-57 -205 -181 -251 -259 -126 -217 -133 -496 -17 -665 62 -90 175 -102 196
-20 9 38 -3 60 -67 122 -88 84 -113 138 -112 240 1 78 20 148 65 240 115 236
428 417 740 428 149 5 252 -28 325 -105 104 -108 90 -297 -32 -429 -91 -98
-192 -138 -353 -141 -67 -1 -73 1 -68 17 7 25 86 334 91 356 2 10 13 52 25 94
11 41 19 77 18 79 -2 1 -46 -8 -99 -21 -53 -13 -124 -26 -159 -29 -73 -8 -76
-9 -83 -36 -4 -16 0 -20 17 -20 12 0 31 -7 43 -15 17 -12 21 -22 17 -53 -5
-42 -217 -891 -241 -967 -22 -70 -70 -140 -112 -163 -20 -11 -69 -30 -108 -42
-46 -14 -73 -27 -73 -36 0 -20 -1 -26 -11 -53 -9 -23 -8 -23 23 -17 64 14 84
16 188 20 59 2 140 -2 185 -10 91 -14 247 -12 287 4 17 7 28 21 33 42 4 17 5
33 3 35 -2 2 -30 -3 -63 -10 -33 -8 -78 -13 -100 -11 -22 2 -52 4 -66 5 l-27
1 19 73 c11 39 51 198 90 352 39 154 73 288 75 298 4 12 16 17 39 17 l34 0 26
-87 c79 -268 161 -502 207 -595 131 -264 292 -434 474 -500 82 -30 238 -34
311 -9 109 37 186 117 198 204 6 41 3 49 -19 72 -55 55 -122 22 -156 -79 -32
-98 -90 -138 -188 -132 -199 14 -342 220 -528 758 -37 106 -85 232 -108 279
l-42 85 85 22 c130 34 224 85 307 167 83 82 117 137 140 225 42 163 -24 308
-174 384 -99 50 -185 68 -353 72 -85 3 -157 3 -160 0z"/>
<path d="M1129 4526 c-2 -2 -25 -6 -50 -9 -264 -31 -572 -222 -698 -432 -140
-232 -137 -558 6 -701 48 -49 118 -59 153 -22 40 43 23 88 -67 171 -84 77
-112 177 -88 306 35 181 146 329 335 445 145 90 302 137 472 141 117 3 200
-17 272 -65 157 -107 150 -344 -15 -494 -92 -84 -169 -111 -324 -115 -70 -2
-76 0 -71 16 3 10 33 124 66 253 33 129 63 246 66 259 6 20 4 22 -12 18 -94
-28 -192 -48 -256 -52 -54 -3 -64 -8 -71 -35 -4 -16 0 -20 17 -20 12 0 32 -7
44 -16 29 -20 35 12 -104 -549 -151 -608 -155 -616 -330 -671 l-81 -25 -10
-45 c-6 -24 -7 -44 -4 -44 3 0 44 7 91 14 89 15 238 13 330 -2 77 -14 192 -12
242 3 35 10 45 18 52 44 5 17 7 33 4 36 -2 2 -21 0 -41 -6 -51 -14 -124 -19
-172 -13 l-40 6 82 326 c115 459 100 412 138 412 33 0 33 -1 60 -87 73 -243
126 -410 135 -425 6 -10 10 -22 10 -28 0 -19 73 -174 119 -250 121 -204 259
-334 417 -392 48 -18 81 -22 174 -23 103 0 121 3 170 26 63 29 136 97 156 144
33 80 -7 152 -79 142 -46 -6 -60 -23 -87 -103 -33 -96 -91 -136 -188 -130
-105 8 -198 75 -285 209 -45 68 -137 245 -137 262 0 3 -9 24 -19 48 -19 39
-88 234 -96 267 -9 36 -68 186 -100 254 -19 41 -35 76 -35 79 0 3 15 9 33 12
70 15 182 57 234 86 74 43 171 135 210 200 92 157 78 339 -36 442 -98 88 -227
128 -437 133 -83 3 -152 3 -155 0z"/>
<path d="M2330 3347 c-50 -26 -81 -70 -82 -117 -1 -41 15 -67 72 -115 88 -75
110 -129 70 -173 -37 -40 -102 -41 -162 -4 l-33 20 -18 -23 c-17 -23 -17 -25
5 -37 13 -6 53 -13 90 -14 59 -2 73 2 112 26 65 42 83 74 77 143 0 10 -37 53
-81 96 -64 63 -80 83 -80 107 1 93 152 118 174 29 7 -28 26 -34 26 -7 0 9 3
27 6 39 5 17 0 25 -23 35 -47 24 -103 22 -153 -5z"/>
<path d="M2749 3356 c-108 -38 -184 -144 -196 -273 -12 -128 52 -203 172 -199
86 2 139 32 201 111 65 83 85 221 42 296 -38 68 -132 96 -219 65z m120 -22
c50 -36 65 -136 36 -247 -35 -135 -129 -212 -217 -178 -98 37 -80 287 29 396
46 46 110 58 152 29z"/>
<path d="M3529 3359 c-5 -3 -23 -75 -39 -160 -34 -174 -40 -192 -78 -235 -55
-63 -108 -72 -143 -23 -19 27 -21 39 -16 107 3 42 8 88 11 102 4 14 9 39 12
55 3 17 11 52 19 79 24 80 24 80 -47 72 -113 -11 -184 -65 -201 -153 l-6 -32
34 16 c19 9 34 19 33 22 -5 51 37 107 88 117 19 3 37 4 40 1 3 -2 -4 -40 -15
-83 -53 -208 -50 -288 10 -339 49 -41 125 -28 184 31 l28 28 -7 -42 c-6 -40
-5 -42 16 -38 13 3 50 11 83 18 49 10 55 13 30 16 -56 7 -61 21 -40 127 40
207 57 293 61 306 4 13 -2 17 -22 15 -14 0 -30 -4 -35 -7z"/>
<path d="M4415 3357 c-120 -41 -199 -159 -200 -297 0 -92 20 -131 83 -161 34
-17 55 -20 100 -16 83 7 152 27 152 43 0 17 3 17 -54 -2 -58 -20 -139 -13
-169 13 -46 41 -58 116 -33 208 26 99 78 171 139 194 68 26 141 2 155 -52 l9
-32 10 25 c19 49 23 77 10 78 -59 8 -178 8 -202 -1z"/>
<path d="M1845 3335 c-30 -13 -64 -33 -75 -46 -26 -33 -53 -109 -37 -109 24 1
52 26 55 49 6 38 32 71 70 86 38 17 76 20 68 6 -3 -5 -8 -26 -12 -47 -3 -22
-9 -55 -14 -74 -5 -19 -11 -51 -14 -70 -22 -142 -48 -190 -100 -190 -17 0 -61
-39 -53 -47 2 -2 67 -6 145 -8 114 -4 149 -2 179 10 38 16 53 30 53 52 0 8 -8
7 -29 -3 -21 -10 -58 -14 -134 -12 l-105 3 37 35 c36 34 53 65 66 124 6 28 7
28 60 23 44 -4 57 -2 71 14 17 18 15 19 -51 19 l-68 0 7 40 c3 22 11 63 17 91
l11 50 49 -2 c57 -3 86 -19 91 -52 3 -19 6 -17 21 17 30 69 32 67 -118 65
-113 -2 -144 -6 -190 -24z"/>
<path d="M3815 3350 c-48 -11 -111 -47 -127 -73 -9 -13 -21 -39 -26 -59 l-10
-36 28 9 c19 7 30 21 38 48 7 20 22 46 34 58 24 21 85 46 97 38 4 -2 -3 -55
-15 -117 -13 -62 -26 -131 -30 -153 -7 -48 -31 -107 -47 -117 -7 -4 -23 -8
-37 -8 -15 0 -32 -11 -43 -25 -18 -25 -18 -25 5 -26 13 0 55 -3 94 -5 61 -3
74 -1 89 16 24 26 15 34 -40 34 -47 0 -48 2 -2 48 24 25 44 74 49 121 2 12 11
17 33 17 28 0 33 -7 83 -105 75 -147 106 -163 178 -88 53 54 41 68 -14 16 -29
-27 -46 -11 -109 104 -43 81 -45 87 -28 97 107 62 132 165 49 198 -39 16 -195
21 -249 8z m183 -21 c64 -22 62 -116 -4 -168 -35 -28 -118 -30 -110 -3 5 14
36 171 36 180 0 6 51 1 78 -9z"/>
<path d="M4795 3350 c-76 -17 -126 -59 -149 -126 -14 -41 -13 -44 2 -44 27 0
42 15 48 44 10 58 67 106 124 106 17 0 17 -4 5 -57 -7 -32 -16 -78 -20 -103
-4 -24 -8 -47 -10 -50 -2 -3 -6 -26 -10 -50 -11 -75 -35 -113 -77 -125 -21 -6
-45 -20 -54 -33 -15 -21 -14 -22 18 -23 18 0 82 -3 143 -5 122 -5 160 4 196
43 l24 26 -30 -9 c-32 -9 -245 -13 -245 -4 0 3 15 17 33 31 30 24 41 46 62
127 6 21 11 22 61 19 43 -3 57 0 70 15 16 17 15 18 -51 18 l-68 0 7 40 c3 22
11 63 17 91 l11 51 62 -5 c33 -4 62 -6 63 -7 0 0 6 -15 13 -32 11 -30 13 -31
20 -13 4 11 6 23 4 27 -3 4 0 9 6 13 5 3 10 15 10 26 0 19 -6 20 -127 18 -71
-1 -141 -5 -158 -9z"/>
</g>
</svg>
