<?xml version="1.0" standalone="no"?>
<!DOCTYPE svg PUBLIC "-//W3C//DTD SVG 20010904//EN"
 "http://www.w3.org/TR/2001/REC-SVG-20010904/DTD/svg10.dtd">
<svg version="1.0" xmlns="http://www.w3.org/2000/svg"
 width="716.000000pt" height="716.000000pt" viewBox="0 0 716.000000 716.000000"
 preserveAspectRatio="xMidYMid meet">
<metadata>
Created by potrace 1.11, written by Peter Selinger 2001-2013
</metadata>
<g transform="translate(0.000000,716.000000) scale(0.100000,-0.100000)"
fill="#000000" stroke="none">
<path d="M2069 5996 c-2 -2 -30 -6 -61 -10 -255 -26 -556 -151 -773 -320 -284
-221 -485 -532 -569 -876 -14 -58 -28 -121 -32 -140 -4 -19 -9 -456 -11 -970
l-4 -935 -24 -18 c-26 -19 -26 -40 0 -31 8 4 17 0 20 -7 2 -8 6 -302 8 -654 2
-352 6 -653 10 -670 45 -224 77 -328 147 -470 126 -255 321 -478 551 -630 78
-52 279 -155 301 -155 8 0 18 -4 24 -8 16 -14 166 -57 239 -69 17 -3 62 -11
100 -18 57 -12 357 -14 1615 -14 953 0 1572 4 1615 10 585 82 1071 460 1283
999 30 75 70 210 78 259 5 29 15 86 21 116 2 11 6 301 8 645 2 344 4 635 4
648 1 16 7 22 24 22 l22 1 -24 20 -24 19 -2 928 c-1 510 -5 938 -9 952 -3 14
-8 41 -11 60 -3 19 -12 62 -20 95 -9 33 -18 71 -21 84 -3 13 -21 65 -40 114
-123 319 -336 583 -628 776 -67 45 -276 144 -356 170 -70 22 -207 55 -280 68
-45 7 -3173 17 -3181 9z"/>
</g>
</svg>
